<svg width="18" height="18" viewBox="0 0 18 18" fill="none" xmlns="http://www.w3.org/2000/svg">
<g clip-path="url(#clip0_2030_1459)">
<path d="M16.944 9.15584C16.944 8.47302 16.8885 7.97474 16.7686 7.45801H8.97144V10.5399H13.5482C13.456 11.3058 12.9577 12.4593 11.8504 13.2343L11.8349 13.3375L14.3002 15.2474L14.471 15.2644C16.0396 13.8157 16.944 11.6842 16.944 9.15584Z" fill="#4285F4"/>
<path d="M8.97148 17.2761C11.2137 17.2761 13.0961 16.5379 14.471 15.2645L11.8504 13.2344C11.1491 13.7235 10.2079 14.0649 8.97148 14.0649C6.77536 14.0649 4.91142 12.6162 4.24698 10.6139L4.14959 10.6222L1.58611 12.6061L1.55258 12.6993C2.91823 15.4121 5.72338 17.2761 8.97148 17.2761Z" fill="#34A853"/>
<path d="M4.24687 10.6138C4.07156 10.0971 3.97009 9.5434 3.97009 8.97132C3.97009 8.39919 4.07155 7.84556 4.23765 7.32883L4.23301 7.21878L1.63739 5.203L1.55247 5.2434C0.989621 6.36916 0.666656 7.63335 0.666656 8.97132C0.666656 10.3093 0.989621 11.5734 1.55247 12.6992L4.24687 10.6138Z" fill="#FBBC05"/>
<path d="M8.97147 3.87776C10.5309 3.87776 11.5828 4.55136 12.1826 5.11427L14.5264 2.82585C13.0869 1.48787 11.2137 0.666626 8.97147 0.666626C5.72338 0.666626 2.91823 2.53056 1.55258 5.24341L4.23776 7.32884C4.91142 5.32649 6.77535 3.87776 8.97147 3.87776Z" fill="#EB4335"/>
</g>
<defs>
<clipPath id="clip0_2030_1459">
<rect width="16.6667" height="16.6667" fill="white" transform="translate(0.666656 0.666626)"/>
</clipPath>
</defs>
</svg>
